Coordinates
version=1
nRows=17
nColumns=36
inDegrees=yes

Units are S.I. units (second, meters, Newtons, ...)
If the header above contains a line with 'inDegrees', this indicates whether rotational values are in degrees (yes) or radians (no).

endheader
time	pelvis_tilt	pelvis_list	pelvis_rotation	pelvis_tx	pelvis_ty	pelvis_tz	hip_flexion_r	hip_adduction_r	hip_rotation_r	knee_angle_r	knee_angle_r_beta	ankle_angle_r	subtalar_angle_r	mtp_angle_r	hip_flexion_l	hip_adduction_l	hip_rotation_l	knee_angle_l	knee_angle_l_beta	ankle_angle_l	subtalar_angle_l	mtp_angle_l	lumbar_extension	lumbar_bending	lumbar_rotation	arm_flex_r	arm_add_r	arm_rot_r	elbow_flex_r	pro_sup_r	arm_flex_l	arm_add_l	arm_rot_l	elbow_flex_l	pro_sup_l
      2.03333330	    -10.20377799	     -2.86568464	     -8.84766701	      0.55614967	      0.89201555	      0.06729665	     18.03540431	      3.33052226	     -0.03470329	     31.58769755	      0.55130933	     -5.90411434	    -33.29154544	     -7.49967465	     14.25709690	      2.77778664	     -2.98965892	     11.82252123	      0.20634192	     12.66399559	     -1.64534936	     -7.49967465	     -1.76221910	      6.13525607	      3.62400243	     31.64654683	      7.61747225	     65.07361887	    115.26286718	     87.35486528	     51.26284187	      5.90089073	     73.27841726	    120.59890841	     59.57669947
      2.05000000	    -10.38146464	     -2.75708451	     -8.80394591	      0.55578715	      0.88845866	      0.06745456	     18.18545009	      3.27473937	      0.01615316	     31.46321470	      0.54913669	     -5.77399621	    -33.40117396	     -7.49976481	     14.57464316	      2.87242808	     -2.81374276	     11.96546197	      0.20883671	     12.59783330	     -1.92142734	     -7.49976481	     -1.46593648	      6.11399714	      3.46739734	     31.82046153	      7.68519131	     64.72289959	    114.90761982	     83.61038001	     51.18461383	      5.84495297	     73.18217375	    120.61708231	     59.81431339
      2.06666670	    -10.36118713	     -2.79026657	     -8.68071589	      0.55617426	      0.89011475	      0.06758014	     17.79224919	      3.25699423	     -0.17764675	     30.77077773	      0.53705138	     -5.76097218	    -33.39145760	     -7.49980740	     14.48806104	      2.85099675	     -2.53789243	     11.87386448	      0.20723803	     12.48481945	     -2.13217560	     -7.49980740	     -1.43855639	      6.22099478	      3.27848495	     31.77107275	      7.73266865	     64.63684917	    114.52078297	     82.71010934	     50.91726929	      5.84472423	     73.14863913	    120.55850142	     59.86365512
      2.08333330	    -10.43522242	     -2.74150124	     -8.59286695	      0.55239034	      0.88807954	      0.06954105	     17.84695961	      3.30933819	     -0.16451401	     30.53134831	      0.53287255	     -5.45115579	    -33.50320540	     -7.49980800	     14.69588951	      2.83208548	     -2.38229954	     11.95252844	      0.20861098	     12.49141733	     -2.12926622	     -7.49980800	     -1.38291943	      6.17309981	      3.32737151	     31.98825531	      7.86490408	     64.60351103	    114.64270313	     82.80912102	     51.02068714	      5.78925663	     73.12262614	    120.56262724	     59.86293034
      2.10000000	    -10.74473022	     -2.80811742	     -8.30068988	      0.55255329	      0.88715543	      0.06959165	     18.14190000	      3.42741266	     -0.45004400	     30.39257435	      0.53045049	     -5.14007297	    -33.45005754	     -7.49987966	     15.35697459	      2.73780455	     -1.71836257	     12.45902809	      0.21745106	     12.61649202	     -2.70636604	     -7.49987966	     -1.11518869	      6.25096545	      3.18248038	     32.11135822	      7.76723039	     64.25920611	    115.09804953	     87.23186721	     51.16468395	      5.86854502	     73.19072906	    120.66768487	     60.01470638
      2.11666670	    -10.97245154	     -2.75066405	     -8.12163200	      0.55261980	      0.88742838	      0.06936037	     18.34684883	      3.39887555	     -0.66441367	     30.24819189	      0.52793054	     -5.03679500	    -33.45122357	     -7.49989272	     15.64906813	      2.77248509	     -1.35391469	     12.56738330	      0.21934222	     12.70078549	     -2.71269001	     -7.49989272	     -0.91999425	      6.21738877	      3.12645085	     32.09910550	      7.76575215	     64.63612342	    115.53188760	     85.98613381	     51.18749343	      5.80887483	     73.37129745	    120.76793282	     60.09907484
      2.13333330	    -11.16211684	     -2.72947358	     -8.02540245	      0.55265489	      0.88529168	      0.06982655	     18.46225861	      3.33869638	     -0.97964240	     30.07009814	      0.52482222	     -5.10216129	    -33.46808418	     -7.49990743	     16.14843800	      2.77315578	     -1.10928178	     13.11118294	      0.22883331	     12.88583712	     -3.05413234	     -7.49990743	     -0.76688064	      6.18736952	      3.04319129	     32.13876422	      7.81476627	     65.02847196	    116.04121659	     84.62162027	     51.35635141	      5.83719032	     73.31771852	    120.79302079	     60.18413614
      2.15000000	    -11.15861125	     -2.81300813	     -7.95984094	      0.55279009	      0.88814439	      0.06915884	     18.29253540	      3.36461628	     -1.22274796	     29.76174929	      0.51944052	     -5.27150700	    -33.42601877	     -7.49993419	     16.33279641	      2.71666515	     -0.81501468	     13.47797332	      0.23523501	     12.92595337	     -3.51896780	     -7.49993419	     -0.89527978	      6.28475447	      2.96208178	     32.32156932	      7.78305013	     65.77860089	    116.31211580	     82.10701784	     51.41526742	      5.89148300	     73.10304331	    120.49022193	     60.34399134
      2.16666670	    -11.31310209	     -2.82916166	     -7.80611507	      0.54889212	      0.88694843	      0.07126674	     18.50417841	      3.40503511	     -1.53365008	     29.75786451	      0.51937271	     -5.17074184	    -33.45615056	     -7.49993566	     16.69987208	      2.71867085	     -0.51897279	     13.76705354	      0.24028041	     13.00893655	     -3.78356557	     -7.49993566	     -0.90853653	      6.26758222	      3.04007399	     32.62053719	      7.82226604	     66.26378733	    116.22855509	     82.98444753	     51.61649302	      5.97835292	     73.00167107	    120.18630328	     60.31663422
      2.18333330	    -11.33657791	     -2.89473465	     -7.60448031	      0.54894366	      0.88744330	      0.07077857	     18.53536613	      3.46770556	     -1.80460300	     29.72125899	      0.51873383	     -5.13324954	    -33.46920203	     -7.49995145	     16.85417875	      2.66765998	     -0.25292189	     13.97305439	      0.24387581	     12.81234216	     -4.18798333	     -7.49995145	     -1.11246666	      6.23844872	      2.95815033	     32.75847637	      7.87175422	     66.40334188	    116.02399617	     86.77085301	     51.68803852	      6.01049552	     72.94402404	    119.96123828	     60.10261388
      2.20000000	    -11.53520028	     -3.01518271	     -7.43265450	      0.54921356	      0.88675853	      0.07085526	     18.72282161	      3.62899878	     -1.97789444	     29.65727853	      0.51761716	     -5.09953435	    -33.46806949	     -7.49996980	     17.25411834	      2.53272189	     -0.03259469	     14.17339531	      0.24737241	     12.76041063	     -4.29606600	     -7.49996980	     -1.11285973	      6.27490627	      2.95174132	     32.73495766	      7.83458242	     66.66097340	    115.98204356	     87.98431433	     51.57882706	      6.13594078	     72.88692040	    119.71466329	     59.95821034
      2.21666670	    -11.72850315	     -3.12273187	     -7.32168098	      0.54902587	      0.88553462	      0.07065441	     18.92181591	      3.69917357	     -2.25293197	     29.61121806	      0.51681325	     -5.26502180	    -33.47341609	     -7.49997609	     17.39009104	      2.41286303	      0.14747656	     13.96682361	      0.24376706	     12.75427494	     -4.15151412	     -7.49997609	     -1.05226328	      6.29744227	      2.78657868	     32.82282040	      7.76346723	     67.19322397	    116.31726665	     85.49989841	     51.40338447	      6.08663498	     72.84549338	    119.80757869	     60.07120628
      2.23333330	    -11.82242478	     -3.23702437	     -7.29497380	      0.54934438	      0.88692519	      0.07058241	     18.94959905	      3.82663334	     -2.34607777	     29.52680916	      0.51534004	     -5.40830691	    -33.46731124	     -7.49998050	     17.22974791	      2.30003192	      0.29080805	     13.41107529	      0.23406742	     12.52960167	     -3.94672263	     -7.49998050	     -1.09681567	      6.33593624	      2.63874476	     32.85271754	      7.79106347	     67.77152900	    116.23923788	     83.74633586	     51.04271834	      5.86760743	     72.59832187	    119.73644904	     60.19940918
      2.25000000	    -12.01078146	     -3.20525283	     -7.29787469	      0.54938757	      0.88704921	      0.07037791	     19.10924202	      3.78778745	     -2.48975722	     29.48421126	      0.51459656	     -5.33922151	    -33.39313394	     -7.49998484	     17.15299665	      2.32638240	      0.29764834	     12.85309019	      0.22432874	     12.44134119	     -3.69743802	     -7.49998484	     -1.09912488	      6.21694794	      2.52037257	     32.89079794	      7.79218696	     68.37613285	    116.23548267	     81.81286712	     50.90780586	      5.55843005	     72.57530958	    119.92352990	     60.31962736
      2.26666670	    -12.05452102	     -3.32971874	     -7.13874173	      0.54968085	      0.88669109	      0.07042208	     19.04240685	      3.88323757	     -2.65894535	     29.38472738	      0.51286024	     -5.42491973	    -33.42039050	     -7.49998884	     16.93306534	      2.25073946	      0.59402610	     12.40984516	      0.21659266	     12.33929038	     -3.79171750	     -7.49998884	     -1.23391461	      6.33789447	      2.49107095	     32.92634520	      7.94890177	     68.56059959	    115.52953425	     87.45494892	     50.49537357	      5.38920542	     72.40965533	    120.24279307	     60.72950911
      2.28333330	    -12.24916410	     -3.34541938	     -6.99505592	      0.55006436	      0.88838965	      0.06978348	     19.21550562	      3.85707376	     -2.83187162	     29.42196397	      0.51351014	     -5.34625358	    -33.33333597	     -7.49999018	     17.00611873	      2.25163835	      0.67035668	     12.18028451	      0.21258607	     12.26189528	     -3.59990861	     -7.49999018	     -1.08515198	      6.18788704	      2.37797573	     32.52926133	      7.91168834	     68.92842991	    115.39015609	     85.91017329	     50.08738686	      5.30974547	     72.68232432	    120.26358194	     60.77159409
      2.30000000	    -12.10654472	     -3.48596643	     -7.04643380	      0.55013382	      0.88815209	      0.06999680	     19.02960519	      4.03006125	     -2.69441112	     29.30972140	      0.51155114	     -5.67437210	    -33.38488361	     -7.49999276	     16.48959264	      2.11511175	      0.62952935	     11.66268487	      0.20355225	     12.27516366	     -3.28401652	     -7.49999276	     -1.36937628	      6.32664830	      2.16759889	     32.49618446	      8.07735930	     69.42939025	    115.32970247	     83.87557854	     49.89902428	      5.16085339	     72.31569150	    120.64728497	     60.97798331
